<?xml version="1.0" encoding="UTF-8"?>
<!DOCTYPE svg PUBLIC '-//W3C//DTD SVG 1.0//EN'
          'http://www.w3.org/TR/2001/REC-SVG-20010904/DTD/svg10.dtd'>
<svg xmlns:xlink="http://www.w3.org/1999/xlink" style="fill-opacity:1; color-rendering:auto; color-interpolation:auto; stroke:black; text-rendering:auto; stroke-linecap:square; stroke-miterlimit:10; stroke-opacity:1; shape-rendering:auto; fill:black; stroke-dasharray:none; font-weight:normal; stroke-width:1; font-family:&apos;Dialog&apos;; font-style:normal; stroke-linejoin:miter; font-size:12; stroke-dashoffset:0; image-rendering:auto;" xmlns="http://www.w3.org/2000/svg"
><!--Generated by the Batik Graphics2D SVG Generator--><defs id="genericDefs"
  /><g
  ><defs id="defs1"
    ><linearGradient x1="133" gradientUnits="userSpaceOnUse" x2="147" y1="111" y2="118" id="linearGradient1" spreadMethod="reflect"
      ><stop style="stop-opacity:1; stop-color:rgb(148,183,210);" offset="0%"
        /><stop style="stop-opacity:1; stop-color:rgb(227,242,253);" offset="100%"
      /></linearGradient
      ><linearGradient x1="133" gradientUnits="userSpaceOnUse" x2="142" y1="118" y2="118" id="linearGradient2" spreadMethod="reflect"
      ><stop style="stop-opacity:1; stop-color:rgb(148,183,210);" offset="0%"
        /><stop style="stop-opacity:1; stop-color:rgb(227,242,253);" offset="100%"
      /></linearGradient
      ><linearGradient x1="150" gradientUnits="userSpaceOnUse" x2="156" y1="118" y2="118" id="linearGradient3" spreadMethod="pad"
      ><stop style="stop-opacity:1; stop-color:rgb(148,183,210);" offset="0%"
        /><stop style="stop-opacity:1; stop-color:rgb(113,140,161);" offset="100%"
      /></linearGradient
      ><linearGradient x1="164" gradientUnits="userSpaceOnUse" x2="178" y1="468" y2="475" id="linearGradient4" spreadMethod="reflect"
      ><stop style="stop-opacity:1; stop-color:rgb(209,160,12);" offset="0%"
        /><stop style="stop-opacity:1; stop-color:rgb(252,232,171);" offset="100%"
      /></linearGradient
      ><linearGradient x1="195" gradientUnits="userSpaceOnUse" x2="209" y1="203" y2="210" id="linearGradient5" spreadMethod="reflect"
      ><stop style="stop-opacity:1; stop-color:rgb(118,158,0);" offset="0%"
        /><stop style="stop-opacity:1; stop-color:rgb(215,231,166);" offset="100%"
      /></linearGradient
      ><linearGradient x1="195" gradientUnits="userSpaceOnUse" x2="204" y1="210" y2="210" id="linearGradient6" spreadMethod="reflect"
      ><stop style="stop-opacity:1; stop-color:rgb(118,158,0);" offset="0%"
        /><stop style="stop-opacity:1; stop-color:rgb(215,231,166);" offset="100%"
      /></linearGradient
      ><linearGradient x1="212" gradientUnits="userSpaceOnUse" x2="218" y1="210" y2="210" id="linearGradient7" spreadMethod="pad"
      ><stop style="stop-opacity:1; stop-color:rgb(118,158,0);" offset="0%"
        /><stop style="stop-opacity:1; stop-color:rgb(90,120,0);" offset="100%"
      /></linearGradient
      ><linearGradient x1="226" gradientUnits="userSpaceOnUse" x2="240" y1="90" y2="97" id="linearGradient8" spreadMethod="reflect"
      ><stop style="stop-opacity:1; stop-color:rgb(216,120,59);" offset="0%"
        /><stop style="stop-opacity:1; stop-color:rgb(255,216,190);" offset="100%"
      /></linearGradient
      ><linearGradient x1="226" gradientUnits="userSpaceOnUse" x2="235" y1="97" y2="97" id="linearGradient9" spreadMethod="reflect"
      ><stop style="stop-opacity:1; stop-color:rgb(216,120,59);" offset="0%"
        /><stop style="stop-opacity:1; stop-color:rgb(255,216,190);" offset="100%"
      /></linearGradient
      ><linearGradient x1="243" gradientUnits="userSpaceOnUse" x2="249" y1="97" y2="97" id="linearGradient10" spreadMethod="pad"
      ><stop style="stop-opacity:1; stop-color:rgb(216,120,59);" offset="0%"
        /><stop style="stop-opacity:1; stop-color:rgb(165,92,45);" offset="100%"
      /></linearGradient
      ><linearGradient x1="304" gradientUnits="userSpaceOnUse" x2="318" y1="321" y2="328" id="linearGradient11" spreadMethod="reflect"
      ><stop style="stop-opacity:1; stop-color:rgb(148,183,210);" offset="0%"
        /><stop style="stop-opacity:1; stop-color:rgb(227,242,253);" offset="100%"
      /></linearGradient
      ><linearGradient x1="304" gradientUnits="userSpaceOnUse" x2="313" y1="328" y2="328" id="linearGradient12" spreadMethod="reflect"
      ><stop style="stop-opacity:1; stop-color:rgb(148,183,210);" offset="0%"
        /><stop style="stop-opacity:1; stop-color:rgb(227,242,253);" offset="100%"
      /></linearGradient
      ><linearGradient x1="321" gradientUnits="userSpaceOnUse" x2="327" y1="328" y2="328" id="linearGradient13" spreadMethod="pad"
      ><stop style="stop-opacity:1; stop-color:rgb(148,183,210);" offset="0%"
        /><stop style="stop-opacity:1; stop-color:rgb(113,140,161);" offset="100%"
      /></linearGradient
      ><linearGradient x1="335" gradientUnits="userSpaceOnUse" x2="349" y1="153" y2="160" id="linearGradient14" spreadMethod="reflect"
      ><stop style="stop-opacity:1; stop-color:rgb(209,160,12);" offset="0%"
        /><stop style="stop-opacity:1; stop-color:rgb(252,232,171);" offset="100%"
      /></linearGradient
      ><linearGradient x1="335" gradientUnits="userSpaceOnUse" x2="344" y1="160" y2="160" id="linearGradient15" spreadMethod="reflect"
      ><stop style="stop-opacity:1; stop-color:rgb(209,160,12);" offset="0%"
        /><stop style="stop-opacity:1; stop-color:rgb(252,232,171);" offset="100%"
      /></linearGradient
      ><linearGradient x1="352" gradientUnits="userSpaceOnUse" x2="358" y1="160" y2="160" id="linearGradient16" spreadMethod="pad"
      ><stop style="stop-opacity:1; stop-color:rgb(209,160,12);" offset="0%"
        /><stop style="stop-opacity:1; stop-color:rgb(159,122,9);" offset="100%"
      /></linearGradient
      ><linearGradient x1="366" gradientUnits="userSpaceOnUse" x2="380" y1="190" y2="197" id="linearGradient17" spreadMethod="reflect"
      ><stop style="stop-opacity:1; stop-color:rgb(118,158,0);" offset="0%"
        /><stop style="stop-opacity:1; stop-color:rgb(215,231,166);" offset="100%"
      /></linearGradient
      ><linearGradient x1="366" gradientUnits="userSpaceOnUse" x2="375" y1="197" y2="197" id="linearGradient18" spreadMethod="reflect"
      ><stop style="stop-opacity:1; stop-color:rgb(118,158,0);" offset="0%"
        /><stop style="stop-opacity:1; stop-color:rgb(215,231,166);" offset="100%"
      /></linearGradient
      ><linearGradient x1="383" gradientUnits="userSpaceOnUse" x2="389" y1="197" y2="197" id="linearGradient19" spreadMethod="pad"
      ><stop style="stop-opacity:1; stop-color:rgb(118,158,0);" offset="0%"
        /><stop style="stop-opacity:1; stop-color:rgb(90,120,0);" offset="100%"
      /></linearGradient
      ><linearGradient x1="397" gradientUnits="userSpaceOnUse" x2="411" y1="60" y2="67" id="linearGradient20" spreadMethod="reflect"
      ><stop style="stop-opacity:1; stop-color:rgb(216,120,59);" offset="0%"
        /><stop style="stop-opacity:1; stop-color:rgb(255,216,190);" offset="100%"
      /></linearGradient
      ><linearGradient x1="397" gradientUnits="userSpaceOnUse" x2="406" y1="67" y2="67" id="linearGradient21" spreadMethod="reflect"
      ><stop style="stop-opacity:1; stop-color:rgb(216,120,59);" offset="0%"
        /><stop style="stop-opacity:1; stop-color:rgb(255,216,190);" offset="100%"
      /></linearGradient
      ><linearGradient x1="414" gradientUnits="userSpaceOnUse" x2="420" y1="67" y2="67" id="linearGradient22" spreadMethod="pad"
      ><stop style="stop-opacity:1; stop-color:rgb(216,120,59);" offset="0%"
        /><stop style="stop-opacity:1; stop-color:rgb(165,92,45);" offset="100%"
      /></linearGradient
      ><linearGradient x1="475" gradientUnits="userSpaceOnUse" x2="489" y1="98" y2="105" id="linearGradient23" spreadMethod="reflect"
      ><stop style="stop-opacity:1; stop-color:rgb(148,183,210);" offset="0%"
        /><stop style="stop-opacity:1; stop-color:rgb(227,242,253);" offset="100%"
      /></linearGradient
      ><linearGradient x1="475" gradientUnits="userSpaceOnUse" x2="484" y1="105" y2="105" id="linearGradient24" spreadMethod="reflect"
      ><stop style="stop-opacity:1; stop-color:rgb(148,183,210);" offset="0%"
        /><stop style="stop-opacity:1; stop-color:rgb(227,242,253);" offset="100%"
      /></linearGradient
      ><linearGradient x1="492" gradientUnits="userSpaceOnUse" x2="498" y1="105" y2="105" id="linearGradient25" spreadMethod="pad"
      ><stop style="stop-opacity:1; stop-color:rgb(148,183,210);" offset="0%"
        /><stop style="stop-opacity:1; stop-color:rgb(113,140,161);" offset="100%"
      /></linearGradient
      ><linearGradient x1="506" gradientUnits="userSpaceOnUse" x2="520" y1="94" y2="101" id="linearGradient26" spreadMethod="reflect"
      ><stop style="stop-opacity:1; stop-color:rgb(209,160,12);" offset="0%"
        /><stop style="stop-opacity:1; stop-color:rgb(252,232,171);" offset="100%"
      /></linearGradient
      ><linearGradient x1="506" gradientUnits="userSpaceOnUse" x2="515" y1="101" y2="101" id="linearGradient27" spreadMethod="reflect"
      ><stop style="stop-opacity:1; stop-color:rgb(209,160,12);" offset="0%"
        /><stop style="stop-opacity:1; stop-color:rgb(252,232,171);" offset="100%"
      /></linearGradient
      ><linearGradient x1="523" gradientUnits="userSpaceOnUse" x2="529" y1="101" y2="101" id="linearGradient28" spreadMethod="pad"
      ><stop style="stop-opacity:1; stop-color:rgb(209,160,12);" offset="0%"
        /><stop style="stop-opacity:1; stop-color:rgb(159,122,9);" offset="100%"
      /></linearGradient
      ><linearGradient x1="537" gradientUnits="userSpaceOnUse" x2="551" y1="132" y2="139" id="linearGradient29" spreadMethod="reflect"
      ><stop style="stop-opacity:1; stop-color:rgb(118,158,0);" offset="0%"
        /><stop style="stop-opacity:1; stop-color:rgb(215,231,166);" offset="100%"
      /></linearGradient
      ><linearGradient x1="537" gradientUnits="userSpaceOnUse" x2="546" y1="139" y2="139" id="linearGradient30" spreadMethod="reflect"
      ><stop style="stop-opacity:1; stop-color:rgb(118,158,0);" offset="0%"
        /><stop style="stop-opacity:1; stop-color:rgb(215,231,166);" offset="100%"
      /></linearGradient
      ><linearGradient x1="554" gradientUnits="userSpaceOnUse" x2="560" y1="139" y2="139" id="linearGradient31" spreadMethod="pad"
      ><stop style="stop-opacity:1; stop-color:rgb(118,158,0);" offset="0%"
        /><stop style="stop-opacity:1; stop-color:rgb(90,120,0);" offset="100%"
      /></linearGradient
      ><linearGradient x1="568" gradientUnits="userSpaceOnUse" x2="582" y1="165" y2="172" id="linearGradient32" spreadMethod="reflect"
      ><stop style="stop-opacity:1; stop-color:rgb(216,120,59);" offset="0%"
        /><stop style="stop-opacity:1; stop-color:rgb(255,216,190);" offset="100%"
      /></linearGradient
      ><linearGradient x1="568" gradientUnits="userSpaceOnUse" x2="577" y1="172" y2="172" id="linearGradient33" spreadMethod="reflect"
      ><stop style="stop-opacity:1; stop-color:rgb(216,120,59);" offset="0%"
        /><stop style="stop-opacity:1; stop-color:rgb(255,216,190);" offset="100%"
      /></linearGradient
      ><linearGradient x1="585" gradientUnits="userSpaceOnUse" x2="591" y1="172" y2="172" id="linearGradient34" spreadMethod="pad"
      ><stop style="stop-opacity:1; stop-color:rgb(216,120,59);" offset="0%"
        /><stop style="stop-opacity:1; stop-color:rgb(165,92,45);" offset="100%"
      /></linearGradient
    ></defs
    ><g style="fill:gray; stroke:gray;"
    ><line y2="385" style="fill:none;" x1="80" x2="91" y1="396"
      /><rect x="91" y="385" width="560" style="fill:white; stroke:none;" height="84"
      /><line y2="301" style="fill:none;" x1="80" x2="91" y1="312"
      /><rect x="91" y="301" width="560" style="fill:rgb(241,243,235); stroke:none;" height="84"
      /><line y2="217" style="fill:none;" x1="80" x2="91" y1="228"
      /><rect x="91" y="217" width="560" style="fill:white; stroke:none;" height="84"
      /><line y2="133" style="fill:none;" x1="80" x2="91" y1="144"
      /><rect x="91" y="133" width="560" style="fill:rgb(241,243,235); stroke:none;" height="84"
      /><rect x="91" y="49" width="560" style="fill:white; stroke:none;" height="84"
      /><line x1="188" x2="199" y1="480" style="fill:none; stroke:silver;" y2="469"
      /><rect x="91" y="49" width="108" style="fill:white; stroke:none;" height="420"
      /><line x1="360" x2="371" y1="480" style="fill:none; stroke:silver;" y2="469"
      /><rect x="199" y="49" width="172" style="fill:rgb(241,243,235); stroke:none;" height="420"
      /><line x1="531" x2="542" y1="480" style="fill:none; stroke:silver;" y2="469"
      /><rect x="371" y="49" width="171" style="fill:white; stroke:none;" height="420"
      /><rect x="542" y="49" width="109" style="fill:rgb(241,243,235); stroke:none;" height="420"
      /><line y2="385" style="fill:none;" x1="80" x2="91" y1="396"
      /><line x1="91" x2="651" y1="385" style="fill:none; stroke:silver;" y2="385"
      /><line y2="301" style="fill:none;" x1="80" x2="91" y1="312"
      /><line x1="91" x2="651" y1="301" style="fill:none; stroke:silver;" y2="301"
      /><line y2="217" style="fill:none;" x1="80" x2="91" y1="228"
      /><line x1="91" x2="651" y1="217" style="fill:none; stroke:silver;" y2="217"
      /><line y2="133" style="fill:none;" x1="80" x2="91" y1="144"
      /><line x1="91" x2="651" y1="133" style="fill:none; stroke:silver;" y2="133"
      /><line x1="91" x2="651" y1="49" style="fill:none; stroke:silver;" y2="49"
      /><line y2="60" style="fill:none;" x1="80" x2="80" y1="480"
      /><polygon style="fill:none;" points=" 80 480 80 60 91 49 91 469"
      /><line y2="480" style="fill:none;" x1="77" x2="80" y1="480"
      /><line y2="396" style="fill:none;" x1="77" x2="80" y1="396"
      /><line y2="312" style="fill:none;" x1="77" x2="80" y1="312"
      /><line y2="228" style="fill:none;" x1="77" x2="80" y1="228"
      /><line y2="144" style="fill:none;" x1="77" x2="80" y1="144"
      /><line y2="60" style="fill:none;" x1="77" x2="80" y1="60"
      /><line x1="188" x2="199" y1="480" style="fill:none; stroke:silver;" y2="469"
      /><line x1="199" x2="199" y1="49" style="fill:none; stroke:silver;" y2="469"
      /><line x1="360" x2="371" y1="480" style="fill:none; stroke:silver;" y2="469"
      /><line x1="371" x2="371" y1="49" style="fill:none; stroke:silver;" y2="469"
      /><line x1="531" x2="542" y1="480" style="fill:none; stroke:silver;" y2="469"
      /><line x1="542" x2="542" y1="49" style="fill:none; stroke:silver;" y2="469"
      /><line x1="651" x2="651" y1="49" style="fill:none; stroke:silver;" y2="469"
      /><line x1="80" x2="640" y1="480" style="fill:none; stroke:silver;" y2="480"
      /><polygon style="fill:none; stroke:silver;" points=" 80 480 91 469 651 469 640 480"
      /><line x1="188" x2="188" y1="480" style="fill:none; stroke:silver;" y2="483"
      /><line x1="360" x2="360" y1="480" style="fill:none; stroke:silver;" y2="483"
      /><line x1="531" x2="531" y1="480" style="fill:none; stroke:silver;" y2="483"
      /><text x="69" y="486" style="fill:rgb(64,64,64); font-family:&apos;宋体&apos;; stroke:none;" xml:space="preserve"
      >0</text
      ><text x="63" y="402" style="fill:rgb(64,64,64); font-family:&apos;宋体&apos;; stroke:none;" xml:space="preserve"
      >20</text
      ><text x="63" y="318" style="fill:rgb(64,64,64); font-family:&apos;宋体&apos;; stroke:none;" xml:space="preserve"
      >40</text
      ><text x="63" y="234" style="fill:rgb(64,64,64); font-family:&apos;宋体&apos;; stroke:none;" xml:space="preserve"
      >60</text
      ><text x="63" y="150" style="fill:rgb(64,64,64); font-family:&apos;宋体&apos;; stroke:none;" xml:space="preserve"
      >80</text
      ><text x="57" y="66" style="fill:rgb(64,64,64); font-family:&apos;宋体&apos;; stroke:none;" xml:space="preserve"
      >100</text
    ></g
    ><g style="font-family:&apos;宋体&apos;; font-size:16;"
    ><text x="21" xml:space="preserve" y="277" style="stroke:none;"
      >分数</text
      ><text x="170" y="497" style="fill:rgb(64,64,64); font-size:12; stroke:none;" xml:space="preserve"
      >孔令仪</text
      ><text x="342" y="497" style="fill:rgb(64,64,64); font-size:12; stroke:none;" xml:space="preserve"
      >肖雨珂</text
      ><text x="513" y="497" style="fill:rgb(64,64,64); font-size:12; stroke:none;" xml:space="preserve"
      >王翘楚</text
      ><text x="344" xml:space="preserve" y="516" style="stroke:none;"
      >姓名</text
      ><ellipse style="fill:url(#linearGradient1); stroke:none;" rx="14" cx="147" ry="7" cy="118"
      /><path d="M133 118 L133 475 C133 478.866 139.268 482 147 482 C148.6363 482 150.207 481.8596 151.6667 481.6017 L151.6667 481.6017 L151.6667 124.6017 L151.6667 124.6017 C150.207 124.8596 148.6363 125 147 125 C139.268 125 133 121.866 133 118 Z" style="fill:url(#linearGradient2); stroke:none;"
      /><path d="M161 118 C161 121.2316 156.6202 123.9518 150.6667 124.7575 L150.6667 124.7575 L150.6667 481.7575 L150.6667 481.7575 C156.6202 480.9518 161 478.2316 161 475 L161 118 Z" style="fill:url(#linearGradient3); stroke:none;"
      /><ellipse style="fill:url(#linearGradient4); stroke:none;" rx="14" cx="178" ry="7" cy="475"
      /><ellipse style="fill:url(#linearGradient5); stroke:none;" rx="14" cx="209" ry="7" cy="210"
      /><path d="M195 210 L195 475 C195 478.866 201.268 482 209 482 C210.6363 482 212.207 481.8596 213.6667 481.6017 L213.6667 481.6017 L213.6667 216.6017 L213.6667 216.6017 C212.207 216.8596 210.6363 217 209 217 C201.268 217 195 213.866 195 210 Z" style="fill:url(#linearGradient6); stroke:none;"
      /><path d="M223 210 C223 213.2316 218.6202 215.9518 212.6667 216.7575 L212.6667 216.7575 L212.6667 481.7575 L212.6667 481.7575 C218.6202 480.9518 223 478.2316 223 475 L223 210 Z" style="fill:url(#linearGradient7); stroke:none;"
      /><ellipse style="fill:url(#linearGradient8); stroke:none;" rx="14" cx="240" ry="7" cy="97"
      /><path d="M226 97 L226 475 C226 478.866 232.268 482 240 482 C241.6363 482 243.207 481.8596 244.6667 481.6017 L244.6667 481.6017 L244.6667 103.6017 L244.6667 103.6017 C243.207 103.8596 241.6363 104 240 104 C232.268 104 226 100.866 226 97 Z" style="fill:url(#linearGradient9); stroke:none;"
      /><path d="M254 97 C254 100.2316 249.6202 102.9518 243.6667 103.7575 L243.6667 103.7575 L243.6667 481.7575 L243.6667 481.7575 C249.6202 480.9518 254 478.2316 254 475 L254 97 Z" style="fill:url(#linearGradient10); stroke:none;"
      /><ellipse style="fill:url(#linearGradient11); stroke:none;" rx="14" cx="318" ry="7" cy="328"
      /><path d="M304 328 L304 475 C304 478.866 310.268 482 318 482 C319.6363 482 321.207 481.8596 322.6667 481.6017 L322.6667 481.6017 L322.6667 334.6017 L322.6667 334.6017 C321.207 334.8596 319.6363 335 318 335 C310.268 335 304 331.866 304 328 Z" style="fill:url(#linearGradient12); stroke:none;"
      /><path d="M332 328 C332 331.2316 327.6202 333.9518 321.6667 334.7575 L321.6667 334.7575 L321.6667 481.7575 L321.6667 481.7575 C327.6202 480.9518 332 478.2316 332 475 L332 328 Z" style="fill:url(#linearGradient13); stroke:none;"
      /><ellipse style="fill:url(#linearGradient14); stroke:none;" rx="14" cx="349" ry="7" cy="160"
      /><path d="M335 160 L335 475 C335 478.866 341.268 482 349 482 C350.6363 482 352.207 481.8596 353.6667 481.6017 L353.6667 481.6017 L353.6667 166.6017 L353.6667 166.6017 C352.207 166.8596 350.6363 167 349 167 C341.268 167 335 163.866 335 160 Z" style="fill:url(#linearGradient15); stroke:none;"
      /><path d="M363 160 C363 163.2316 358.6202 165.9518 352.6667 166.7575 L352.6667 166.7575 L352.6667 481.7575 L352.6667 481.7575 C358.6202 480.9518 363 478.2316 363 475 L363 160 Z" style="fill:url(#linearGradient16); stroke:none;"
      /><ellipse style="fill:url(#linearGradient17); stroke:none;" rx="14" cx="380" ry="7" cy="197"
      /><path d="M366 197 L366 475 C366 478.866 372.268 482 380 482 C381.6363 482 383.207 481.8596 384.6667 481.6017 L384.6667 481.6017 L384.6667 203.6017 L384.6667 203.6017 C383.207 203.8596 381.6363 204 380 204 C372.268 204 366 200.866 366 197 Z" style="fill:url(#linearGradient18); stroke:none;"
      /><path d="M394 197 C394 200.2316 389.6202 202.9518 383.6667 203.7575 L383.6667 203.7575 L383.6667 481.7575 L383.6667 481.7575 C389.6202 480.9518 394 478.2316 394 475 L394 197 Z" style="fill:url(#linearGradient19); stroke:none;"
      /><ellipse style="fill:url(#linearGradient20); stroke:none;" rx="14" cx="411" ry="7" cy="67"
      /><path d="M397 67 L397 475 C397 478.866 403.268 482 411 482 C412.6363 482 414.207 481.8596 415.6667 481.6017 L415.6667 481.6017 L415.6667 73.6017 L415.6667 73.6017 C414.207 73.8596 412.6363 74 411 74 C403.268 74 397 70.866 397 67 Z" style="fill:url(#linearGradient21); stroke:none;"
      /><path d="M425 67 C425 70.2316 420.6202 72.9518 414.6667 73.7575 L414.6667 73.7575 L414.6667 481.7575 L414.6667 481.7575 C420.6202 480.9518 425 478.2316 425 475 L425 67 Z" style="fill:url(#linearGradient22); stroke:none;"
      /><ellipse style="fill:url(#linearGradient23); stroke:none;" rx="14" cx="489" ry="7" cy="105"
      /><path d="M475 105 L475 475 C475 478.866 481.268 482 489 482 C490.6363 482 492.207 481.8596 493.6667 481.6017 L493.6667 481.6017 L493.6667 111.6017 L493.6667 111.6017 C492.207 111.8596 490.6363 112 489 112 C481.268 112 475 108.866 475 105 Z" style="fill:url(#linearGradient24); stroke:none;"
      /><path d="M503 105 C503 108.2316 498.6202 110.9518 492.6667 111.7575 L492.6667 111.7575 L492.6667 481.7575 L492.6667 481.7575 C498.6202 480.9518 503 478.2316 503 475 L503 105 Z" style="fill:url(#linearGradient25); stroke:none;"
      /><ellipse style="fill:url(#linearGradient26); stroke:none;" rx="14" cx="520" ry="7" cy="101"
      /><path d="M506 101 L506 475 C506 478.866 512.268 482 520 482 C521.6363 482 523.207 481.8596 524.6667 481.6017 L524.6667 481.6017 L524.6667 107.6017 L524.6667 107.6017 C523.207 107.8596 521.6363 108 520 108 C512.268 108 506 104.866 506 101 Z" style="fill:url(#linearGradient27); stroke:none;"
      /><path d="M534 101 C534 104.2316 529.6202 106.9518 523.6667 107.7575 L523.6667 107.7575 L523.6667 481.7575 L523.6667 481.7575 C529.6202 480.9518 534 478.2316 534 475 L534 101 Z" style="fill:url(#linearGradient28); stroke:none;"
      /><ellipse style="fill:url(#linearGradient29); stroke:none;" rx="14" cx="551" ry="7" cy="139"
      /><path d="M537 139 L537 475 C537 478.866 543.268 482 551 482 C552.6363 482 554.207 481.8596 555.6667 481.6017 L555.6667 481.6017 L555.6667 145.6017 L555.6667 145.6017 C554.207 145.8596 552.6363 146 551 146 C543.268 146 537 142.866 537 139 Z" style="fill:url(#linearGradient30); stroke:none;"
      /><path d="M565 139 C565 142.2316 560.6202 144.9518 554.6667 145.7575 L554.6667 145.7575 L554.6667 481.7575 L554.6667 481.7575 C560.6202 480.9518 565 478.2316 565 475 L565 139 Z" style="fill:url(#linearGradient31); stroke:none;"
      /><ellipse style="fill:url(#linearGradient32); stroke:none;" rx="14" cx="582" ry="7" cy="172"
      /><path d="M568 172 L568 475 C568 478.866 574.268 482 582 482 C583.6363 482 585.207 481.8596 586.6667 481.6017 L586.6667 481.6017 L586.6667 178.6017 L586.6667 178.6017 C585.207 178.8596 583.6363 179 582 179 C574.268 179 568 175.866 568 172 Z" style="fill:url(#linearGradient33); stroke:none;"
      /><path d="M596 172 C596 175.2316 591.6202 177.9518 585.6667 178.7575 L585.6667 178.7575 L585.6667 481.7575 L585.6667 481.7575 C591.6202 480.9518 596 478.2316 596 475 L596 172 Z" style="fill:url(#linearGradient34); stroke:none;"
      /><text x="140" y="131" style="font-size:12; font-family:sans-serif; stroke:none;" xml:space="preserve"
      >85</text
      ><text x="175" y="488" style="font-size:12; font-family:sans-serif; stroke:none;" xml:space="preserve"
      >0</text
      ><text x="202" y="223" style="font-size:12; font-family:sans-serif; stroke:none;" xml:space="preserve"
      >63</text
      ><text x="233" y="110" style="font-size:12; font-family:sans-serif; stroke:none;" xml:space="preserve"
      >90</text
      ><text x="311" y="341" style="font-size:12; font-family:sans-serif; stroke:none;" xml:space="preserve"
      >35</text
      ><text x="342" y="173" style="font-size:12; font-family:sans-serif; stroke:none;" xml:space="preserve"
      >75</text
      ><text x="373" y="210" style="font-size:12; font-family:sans-serif; stroke:none;" xml:space="preserve"
      >66</text
      ><text x="404" y="80" style="font-size:12; font-family:sans-serif; stroke:none;" xml:space="preserve"
      >97</text
      ><text x="482" y="118" style="font-size:12; font-family:sans-serif; stroke:none;" xml:space="preserve"
      >88</text
      ><text x="513" y="114" style="font-size:12; font-family:sans-serif; stroke:none;" xml:space="preserve"
      >89</text
      ><text x="544" y="152" style="font-size:12; font-family:sans-serif; stroke:none;" xml:space="preserve"
      >80</text
      ><text x="575" y="185" style="font-size:12; font-family:sans-serif; stroke:none;" xml:space="preserve"
      >72</text
    ></g
  ></g
><a xlink:href="http://jd.com" target="_blank">
<polygon points="147.0,111.0,137.0,113.0,134.0,115.0,133.0,118.0,133.0,475.0,134.0,477.0,137.0,479.0,147.0,482.0,156.0,479.0,159.0,477.0,161.0,475.0,161.0,118.0,159.0,115.0,156.0,113.0,147.0,111.0,147.0,111.0" style="fill-opacity:0;stroke-width:0"/>
</a><a xlink:href="http://jd.com" target="_blank">
<polygon points="178.0,468.0,168.0,470.0,165.0,472.0,164.0,475.0,165.0,477.0,168.0,479.0,178.0,482.0,187.0,479.0,190.0,477.0,192.0,475.0,190.0,472.0,187.0,470.0,178.0,468.0,178.0,468.0" style="fill-opacity:0;stroke-width:0"/>
</a><a xlink:href="http://jd.com" target="_blank">
<polygon points="209.0,203.0,199.0,205.0,196.0,207.0,195.0,210.0,195.0,475.0,196.0,477.0,199.0,479.0,209.0,482.0,218.0,479.0,221.0,477.0,223.0,475.0,223.0,210.0,221.0,207.0,218.0,205.0,209.0,203.0,209.0,203.0" style="fill-opacity:0;stroke-width:0"/>
</a><a xlink:href="http://jd.com" target="_blank">
<polygon points="240.0,90.0,230.0,92.0,227.0,94.0,226.0,97.0,226.0,475.0,227.0,477.0,230.0,479.0,240.0,482.0,249.0,479.0,252.0,477.0,254.0,475.0,254.0,97.0,252.0,94.0,249.0,92.0,240.0,90.0,240.0,90.0" style="fill-opacity:0;stroke-width:0"/>
</a><a xlink:href="http://jd.com" target="_blank">
<polygon points="318.0,321.0,308.0,323.0,305.0,325.0,304.0,328.0,304.0,475.0,305.0,477.0,308.0,479.0,318.0,482.0,327.0,479.0,330.0,477.0,332.0,475.0,332.0,328.0,330.0,325.0,327.0,323.0,318.0,321.0,318.0,321.0" style="fill-opacity:0;stroke-width:0"/>
</a><a xlink:href="http://jd.com" target="_blank">
<polygon points="349.0,153.0,339.0,155.0,336.0,157.0,335.0,160.0,335.0,475.0,336.0,477.0,339.0,479.0,349.0,482.0,358.0,479.0,361.0,477.0,363.0,475.0,363.0,160.0,361.0,157.0,358.0,155.0,349.0,153.0,349.0,153.0" style="fill-opacity:0;stroke-width:0"/>
</a><a xlink:href="http://jd.com" target="_blank">
<polygon points="380.0,190.0,370.0,192.0,367.0,194.0,366.0,197.0,366.0,475.0,367.0,477.0,370.0,479.0,380.0,482.0,389.0,479.0,392.0,477.0,394.0,475.0,394.0,197.0,392.0,194.0,389.0,192.0,380.0,190.0,380.0,190.0" style="fill-opacity:0;stroke-width:0"/>
</a><a xlink:href="http://jd.com" target="_blank">
<polygon points="411.0,60.0,401.0,62.0,398.0,64.0,397.0,67.0,397.0,475.0,398.0,477.0,401.0,479.0,411.0,482.0,420.0,479.0,423.0,477.0,425.0,475.0,425.0,67.0,423.0,64.0,420.0,62.0,411.0,60.0,411.0,60.0" style="fill-opacity:0;stroke-width:0"/>
</a><a xlink:href="http://jd.com" target="_blank">
<polygon points="489.0,98.0,479.0,100.0,476.0,102.0,475.0,105.0,475.0,475.0,476.0,477.0,479.0,479.0,489.0,482.0,498.0,479.0,501.0,477.0,503.0,475.0,503.0,105.0,501.0,102.0,498.0,100.0,489.0,98.0,489.0,98.0" style="fill-opacity:0;stroke-width:0"/>
</a><a xlink:href="http://jd.com" target="_blank">
<polygon points="520.0,94.0,510.0,96.0,507.0,98.0,506.0,101.0,506.0,475.0,507.0,477.0,510.0,479.0,520.0,482.0,529.0,479.0,532.0,477.0,534.0,475.0,534.0,101.0,532.0,98.0,529.0,96.0,520.0,94.0,520.0,94.0" style="fill-opacity:0;stroke-width:0"/>
</a><a xlink:href="http://jd.com" target="_blank">
<polygon points="551.0,132.0,541.0,134.0,538.0,136.0,537.0,139.0,537.0,475.0,538.0,477.0,541.0,479.0,551.0,482.0,560.0,479.0,563.0,477.0,565.0,475.0,565.0,139.0,563.0,136.0,560.0,134.0,551.0,132.0,551.0,132.0" style="fill-opacity:0;stroke-width:0"/>
</a><a xlink:href="http://jd.com" target="_blank">
<polygon points="582.0,165.0,572.0,167.0,569.0,169.0,568.0,172.0,568.0,475.0,569.0,477.0,572.0,479.0,582.0,482.0,591.0,479.0,594.0,477.0,596.0,475.0,596.0,172.0,594.0,169.0,591.0,167.0,582.0,165.0,582.0,165.0" style="fill-opacity:0;stroke-width:0"/>
</a></svg>