<?xml version="1.0" encoding="utf-8"?>
<!-- Generator: Adobe Illustrator 15.0.0, SVG Export Plug-In . SVG Version: 6.00 Build 0)  -->
<!DOCTYPE svg PUBLIC "-//W3C//DTD SVG 1.1//EN" "http://www.w3.org/Graphics/SVG/1.1/DTD/svg11.dtd">
<svg version="1.1" id="图层_1" xmlns="http://www.w3.org/2000/svg" xmlns:xlink="http://www.w3.org/1999/xlink" x="0px" y="0px"
	 width="594px" height="491px" viewBox="0 0 594 491" enable-background="new 0 0 594 491" xml:space="preserve">
<g>
	<polygon fill="#559FD1" stroke="#D61518" stroke-miterlimit="10" points="296.146,88.126 296.918,87.623 296.852,87.462 
		296.723,86.86 295.781,85.082 295.652,83.15 295.225,81.982 294.773,80.151 293.615,78.78 292.394,78.021 291.621,77.611 
		291.068,76.649 290.165,74 286.2,71.62 283.201,69.286 282.684,66.893 281.721,64.709 281.42,64.097 279.793,62.631 279.45,60.538 
		278.12,60.143 276.49,58.516 273.103,54.302 269.183,50.432 266.503,46.835 266.888,42.923 267.703,39.878 269.288,38.808 
		272.375,37.233 273.963,35.504 275.269,35.805 276.189,36.823 278.204,40.886 278.932,43.125 280.157,44.595 280.822,46.114 
		282.235,47.185 284.465,48.612 285.535,48.654 286.2,48.452 287.058,47.948 288.279,48.053 289.241,48.557 290.914,49.424 
		294.066,48.71 296.146,49.725 298.224,50.338 298.654,49.984 299.081,48.913 299.403,48.003 297.625,41.754 296.918,40.029 
		296.401,39.312 295.953,39.01 295.844,38.143 295.288,36.62 292.908,31.746 293.468,30.073 293.724,28.39 293.812,27.273 
		293.916,26.623 294.322,25.808 294.665,24.327 295.138,23.676 295.694,23.474 297.584,24.436 299.403,24.733 301.269,23.718 
		302.77,24.488 304.526,25.604 308.6,25.902 309.712,24.639 311.598,23.516 311.986,22.602 313.568,21.692 315.283,21.787 
		317.642,22.102 318.285,21.542 318.908,20.824 320.77,21.027 321.844,22.452 324.588,24.939 326.88,25.958 327.736,25.808 
		328.51,24.939 329.819,24.125 330.631,22.508 331.701,20.118 331.701,19.152 331.254,17.833 331.852,15.131 332.22,14.221 
		332.989,12.797 333.031,11.534 332.73,9.851 332.475,8.734 332.045,7.772 331.617,6.509 331.852,4.983 332.304,4.01 332.408,2.744 
		332.772,1.932 333.592,1.834 334.231,1.526 334.704,0.763 335.219,0 336.223,0.098 337.405,0.098 338.455,0.665 339.225,0.966 
		339.975,1.781 340.492,2.649 341.003,3.356 342.207,4.213 343.193,4.416 343.9,4.619 344.691,5.746 346.126,5.081 346.748,5.029 
		347.05,5.844 347.351,7.471 347.799,9.347 348.25,11.681 347.949,12.958 347.351,13.92 346.535,14.48 346.427,15.243 
		346.748,16.356 346.791,17.78 346.577,20.17 347.05,24.125 345.569,26.161 345.824,28.089 347.693,30.017 348.68,34.08 
		350.5,35.658 351.721,38.143 352.474,38.45 353.607,38.195 354.808,38.346 355.623,38.751 356.029,39.976 355.108,41.698 
		354.167,43.629 354.101,45.204 356.953,48.71 358.472,49.375 364,51.762 364.561,54.547 366.338,54.1 368.115,55.513 
		369.684,56.479 370.411,57.399 371.975,59.425 372.598,60.646 373.714,64.356 374.313,66.186 374.911,66.84 375.429,66.487 
		376.049,65.619 376.755,64.611 378.428,64.856 380.055,66.788 381.899,66.487 384.513,67.505 387.942,69.531 389.51,72.232 
		390.518,72.586 391.116,72.992 391.735,73.646 392.442,75.942 393.625,79.133 395.788,80.505 395.746,82.23 395.746,84.974 
		396.26,85.842 398.447,86.293 400.781,86.601 401.961,87.01 402.905,87.623 402.153,89.547 401.639,91.167 402.153,93.204 
		404.578,96.451 405.95,97.063 406.569,98.639 406.762,99.912 407.531,100.77 411.094,103.622 412.056,104.993 412.354,106.666 
		413.319,106.963 414.866,108.388 417.134,108.947 421.7,111.39 425.924,111.446 427.639,111.838 429.78,109.913 432.223,109.556 
		433.682,109.354 436.425,109.913 438.826,109.094 440.971,108.702 444.722,107.52 446.542,108.892 448.729,109.966 
		452.371,110.627 457.257,110.168 460.602,110.627 465.445,110.781 469.259,112.044 470.012,112.408 472.797,113.78 
		474.235,115.708 475.606,116.31 476.205,115.953 478.435,115.708 480.023,115.505 482.207,117.027 485.398,121.237 
		489.258,121.797 491.252,121.958 493.009,122.311 494.854,121.391 495.752,121.293 496.483,120.939 497.232,120.124 
		497.743,118.696 499.27,117.486 500.424,116.824 502.461,117.531 504.154,116.618 505.012,116.159 505.568,115.75 506.897,115.806 
		507.584,115.099 509.382,114.693 515.688,113.671 516.993,113.321 518.109,113.875 519.736,114.435 521.042,114.938 
		521.664,116.471 523.488,117.027 527.774,117.437 528.824,117.276 530.004,116.362 531.267,116.114 532.681,116.618 534.57,117.08 
		537.313,119.309 537.762,120.478 538.531,122.161 538.021,123.07 536.306,123.532 536.306,124.239 536.306,126.724 
		535.746,128.151 534.717,128.558 530.602,128.911 529.083,126.577 527.645,124.743 525.588,124.337 524.968,125.506 523.4,126.521 
		518.109,127.389 517.248,128.151 516.374,130.787 516.584,133.071 516.629,134.398 515.17,138.202 515.429,139.223 
		517.291,144.857 518.558,146.894 517.745,148.266 516.927,149.175 516.328,149.07 513.949,147.804 512.686,147.804 
		511.656,149.329 510.327,149.991 507.905,151.009 506.471,150.197 505.568,148.825 504.455,147.548 502.523,146.337 
		501.089,146.285 498.454,146.53 496.008,146.635 492.558,146.586 491.34,146.841 489.771,148.92 486.924,149.882 485.594,150.645 
		484.327,151.569 482.102,151.975 478.798,154.76 477.279,156.188 477.363,158.112 478.84,161.619 480.471,164.663 480.212,165.993 
		478.477,166.196 476.355,165.734 474.725,165.027 473.57,166.196 472.5,166.399 469.903,165.937 468.682,168.327 468.021,170.867 
		470.568,171.777 471.793,174.265 472.346,177.565 472.863,178.282 473.977,178.842 474.536,179.493 474.536,181.176 
		474.791,182.958 477.686,184.882 478.798,185.946 480.471,187.275 480.408,188.893 476.678,192.451 474.578,194.841 
		474.791,197.123 475.177,200.475 474.725,202.095 473.206,204.227 471.617,207.131 471.877,209.209 473.977,209.006 
		475.089,209.006 476.251,209.972 477.363,211.4 478.242,213.22 478.651,215.609 479.036,216.478 479.547,218.203 480.576,219.263 
		481.22,219.518 482.55,219.777 483.837,220.078 483.319,221.002 482.721,222.317 482.654,224.396 483.151,226.433 483.921,228.21 
		486.815,230.849 487.33,231.458 487.521,232.424 487.631,233.484 487.631,234.201 487.631,235.426 487.994,236.133 
		488.551,237.001 490.738,237.095 492.41,237.193 494.083,238.155 494.682,238.211 496.008,237.651 497.17,237.806 497.855,238.565 
		497.939,239.786 497.855,241.823 498.797,247.148 499.01,248.114 499.913,250.448 500.641,250.857 502.313,250.91 503.342,250.406 
		506.128,251.113 507.09,251.572 509.641,252.74 509.771,253.192 510.068,254.267 509.834,254.973 509.641,255.281 508.508,255.323 
		507.842,255.484 507.457,256.044 507.027,256.803 506.981,257.619 507.027,258.228 507.391,258.935 509.061,259.032 
		509.47,259.547 509.018,260.051 508.27,260.159 507.584,260.404 507.457,260.964 507.457,261.678 507.688,263.203 508.206,263.963 
		508.955,264.478 510.285,264.723 511.251,264.628 513.329,264.478 513.497,264.723 512.878,265.282 511.656,266.041 
		510.799,266.814 509.771,267.777 508.871,267.871 508.098,267.928 507.324,267.669 505.719,267.263 504.756,267.21 
		504.154,267.263 503.125,267.928 502.055,268.69 500.941,269.148 501.089,269.747 501.239,270.209 501.648,271.024 
		502.227,271.731 502.355,272.448 502.268,273.358 501.971,274.229 501.453,275.343 500.683,276.402 499.825,277.474 
		499.01,278.184 497.855,278.495 495.602,278.495 494.594,278.643 493.223,278.943 491.938,279.255 491.294,279.556 
		490.822,280.112 490.521,281.131 490.178,282.148 489.709,282.961 488.96,284.024 488.442,284.175 487.267,284.175 
		486.406,284.283 486.063,284.486 484.992,285.137 484.18,285.952 483.516,286.971 482.654,287.881 481.136,288.343 480.534,288.14 
		479.505,287.58 478.092,287.026 477.234,286.873 476.678,286.873 475.39,287.174 474.62,287.53 473.871,288.041 473.206,288.951 
		472.797,289.616 472.391,290.529 471.939,291.086 471.316,291.548 469.819,291.954 469.049,292.307 468.64,292.759 
		468.489,293.221 468.188,294.848 468.083,295.964 467.013,295.964 465.788,296.017 464.976,295.761 464.224,295.148 
		463.152,294.795 462.4,295.201 460.518,298.504 459.657,298.298 458.373,297.741 457.474,297.482 457.001,297.84 456.486,298.76 
		455.675,299.778 454.667,300.282 453.187,300.688 451.514,300.891 450.762,301.041 449.845,300.839 448.474,299.925 
		446.843,298.91 444.4,298.651 443.092,298.448 441.979,298.043 440.904,297.591 440.089,297.389 439.6,298.245 439.424,299.414 
		439.34,300.023 438.312,300.786 436.789,301.801 434.861,302.158 433.79,302.508 432.632,302.669 431.816,303.326 431.193,304.341 
		430.445,305.104 429.738,305.566 428.968,306.014 428.625,306.734 428.107,307.547 427.296,308.106 426.267,308.715 
		425.322,310.129 424.209,310.44 422.838,310.591 421.658,310.997 420.031,310.087 418.551,309.572 416.836,308.866 
		413.172,307.952 412.935,306.528 411.646,305.66 411.437,305.66 410.751,305.566 409.764,305.821 407.531,306.122 406.419,305.916 
		405.089,305.66 404.081,305.713 402.262,306.122 400.631,306.175 396.26,306.325 395.704,306.476 391.435,307.441 390.773,308.106 
		389.699,308.555 388.95,308.456 388.285,308.254 387.62,307.645 387.215,306.938 386.57,306.217 385.286,305.457 384.471,305.251 
		383.765,305.307 382.028,305.566 380.527,306.734 380.163,307.287 379.348,307.952 378.984,308.404 378.383,309.828 
		377.612,310.44 376.969,310.85 376.346,310.944 375.639,311.351 374.568,311.298 373.714,311.351 372.553,311.095 371.227,310.997 
		369.382,311.147 368.182,311.501 367.885,312.016 367.752,312.722 367.752,313.943 368.011,314.65 367.625,315.413 
		366.897,316.432 366.701,316.729 366.744,317.897 367.752,319.325 368.374,320.246 368.182,321.768 368.57,322.775 
		368.011,323.847 367.198,324.512 366.513,325.368 366.254,327.297 366.254,328.314 365.631,329.39 364.518,329.687 
		363.896,330.446 363.703,332.024 364.154,333.396 365.438,334.306 366.639,334.768 367.408,335.065 369.123,336.234 
		369.554,336.695 370.197,338.774 370.152,339.537 369.684,340.713 369.809,342.589 370.11,344.209 370.197,345.741 
		370.239,347.061 370.369,348.278 370.712,349.489 370.67,351.021 370.369,352.029 370.11,352.897 370.453,353.604 371.181,354.325 
		371.866,355.088 372.598,355.536 373.112,355.494 373.455,354.934 374.12,354.164 374.974,353.401 375.981,353.198 
		376.905,353.052 377.42,353.156 378.127,353.563 378.536,353.863 378.536,354.731 378.984,355.333 379.155,356.81 379.754,357.313 
		380.271,358.076 380.355,358.847 380.398,359.651 380.762,360.52 381.385,361.226 382.242,362.094 382.841,362.951 
		384.513,363.818 385.199,364.229 386.06,364.634 386.809,365.449 387.215,366.048 388.03,366.359 388.803,366.454 389.51,366.769 
		390.518,367.175 391.18,367.024 392.551,367.024 393.517,367.119 394.374,367.378 395.144,368.032 395.662,368.791 
		396.047,369.659 396.604,370.366 397.586,371.031 398.146,370.775 398.188,369.918 397.846,369.253 397.159,368.438 
		396.816,367.882 397.159,366.251 398.23,365.694 398.896,365.6 399.561,365.652 400.12,366.209 401.082,366.821 401.639,367.825 
		402.262,368.994 402.709,369.81 402.863,371.182 402.969,372.402 402.863,373.571 402.604,374.181 402.709,375.094 
		403.935,377.483 404.445,378.341 405.047,379.412 405.712,380.633 406.076,381.34 406.824,381.899 407.531,382.914 407.79,383.625 
		408.008,384.342 408.238,385.402 407.748,385.812 406.419,386.067 405.712,385.959 404.532,386.271 403.462,386.323 
		402.709,386.477 402.003,386.722 401.404,387.029 401.037,387.439 400.719,387.943 400.525,388.556 400.162,389.164 
		399.711,389.773 399.004,390.739 398.23,391.352 397.632,392.006 397.331,392.517 397.674,393.686 398.038,394.651 
		399.091,395.872 399.665,396.786 399.665,399.271 399.091,399.936 398.489,400.642 397.888,401.349 397.033,401.607 
		396.215,401.916 395.361,402.272 394.843,402.57 394.416,403.588 394.178,404.757 394.416,405.667 394.416,406.279 
		394.115,407.199 394.224,407.802 395.102,409.226 395.662,409.933 395.917,410.748 396.732,411.714 397.033,411.818 
		397.674,413.246 398.293,414.359 398.661,415.27 398.661,415.934 398.23,416.287 397.674,416.588 397.331,417.145 397.159,417.865 
		397.159,418.271 396.858,418.517 396.26,418.828 395.851,418.625 395.144,417.865 394.588,417.456 393.814,417.306 
		392.918,417.456 392.488,418.013 392.188,418.517 390.815,419.237 390.175,419.44 389.657,419.44 389.101,419.332 388.586,419.237 
		388.03,419.384 387.578,419.741 386.914,420.448 386.249,421.015 385.843,421.421 385.759,422.533 385.947,423.65 385.885,424.518 
		385.692,425.172 385.073,425.525 384.576,425.634 383.915,425.935 383.613,426.096 383.271,426.6 383.142,427.359 382.949,428.066 
		382.651,428.679 382.455,429.749 382.543,430.561 382.715,431.064 382.757,431.526 383.142,432.182 383.4,433.049 383.358,433.553 
		382.799,434.218 381.644,434.722 380.958,434.977 379.649,435.48 378.642,435.943 378.127,436.094 377.57,436.146 376.801,435.995 
		376.412,435.943 375.342,436.048 373.924,436.499 373.154,437.014 372.686,437.314 372.297,437.776 371.782,438.225 
		371.227,439.148 371.181,440.11 370.754,440.614 370.197,440.765 369.123,440.968 368.482,440.968 367.668,440.614 
		366.939,439.449 366.38,438.077 365.995,437.518 365.074,436.649 364.518,435.995 363.637,435.48 360.34,435.033 359.885,435.334 
		359.396,435.439 358.835,435.439 357.551,435.439 355.882,435.334 355.021,435.334 353.285,435.74 352.474,435.74 352.173,436.706 
		352.109,437.314 352.984,437.871 354.356,438.483 355.322,438.837 355.172,439.949 354.293,440.317 353.349,440.87 352.62,441.321 
		351.424,442.095 350.605,441.892 350.052,440.87 349.576,440.667 348.936,440.614 347.564,440.52 346.878,440.411 345.636,439.757 
		343.578,439.449 342.893,439.148 342.164,439.092 341.346,439.092 340.383,439.352 339.677,439.544 338.711,439.757 
		335.152,440.059 334.189,440.002 333.592,439.799 330.33,433.661 329.108,433.049 328.447,433.402 324.137,433.5 322.572,433.809 
		321.543,434.571 320.645,435.278 320.322,436.202 320.172,437.367 320.322,438.333 319.958,438.837 319.272,439.352 
		317.792,440.563 317.019,440.968 316.102,441.279 315.542,441.076 314.598,439.799 313.785,439.907 312.97,440.156 311.49,440.821 
		310.934,441.43 310.527,442.34 310.678,443.82 310.482,444.88 310.118,445.587 310.678,447.015 311.234,447.68 311.385,448.491 
		310.934,449.296 310.377,449.66 309.411,449.961 308.684,450.014 307.738,451.438 307.27,452.554 307.57,453.11 307.27,453.873 
		306.755,454.076 306.156,454.076 305.555,453.369 304.995,453.313 304.074,453.614 303.26,453.979 302.447,454.332 301.481,454.58 
		300.816,454.888 299.896,455.245 299.299,455.854 299.299,457.022 298.738,458.541 297.772,459.413 292.804,461.19 
		291.922,461.491 291.278,461.6 290.55,462.104 290.613,463.118 289.864,464.994 289.696,465.701 288.237,465.554 286.865,464.899 
		285.987,463.57 285.192,463.321 284.122,463.622 283.499,464.49 282.792,465.197 282.537,465.904 282.684,466.979 283.499,467.534 
		285.063,468.038 285.581,469.165 286.435,470.334 286.092,471.188 285.322,471.706 284.871,472.818 285.945,473.119 
		287.807,473.172 289.094,473.428 290.357,474.135 290.98,475.002 291.579,476.065 292.286,477.137 292.649,479.117 
		292.649,479.979 293.209,481.049 293.854,482.774 293.766,484.037 293.293,485.206 293.209,485.927 293.101,486.932 
		292.181,487.502 291.173,487.704 290.466,488.006 289.65,488.006 288.688,488.261 287.981,488.11 287.25,487.704 286.694,486.687 
		285.623,486.074 284.871,485.818 283.649,485.612 282.75,485.612 281.676,485.518 280.392,485.314 279.45,484.961 278.334,485.164 
		277.648,485.108 276.791,485.108 276.042,484.905 275.377,484.853 274.607,484.905 274.11,485.871 270.79,485.612 268.732,485.818 
		268.112,484.905 267.36,484.198 266.587,483.533 265.733,482.364 264.319,480.79 263.333,479.677 263.136,478.357 263.031,477.34 
		262.129,476.527 261.1,475.713 260.138,474.652 259.581,474.341 258.657,474.04 257.649,473.172 256.942,472.969 254.843,472.314 
		253.534,471.8 252.421,471.094 250.899,470.226 250.042,469.816 248.929,468.553 247.792,467.182 247.299,465.96 246.119,464.641 
		245.822,463.014 245.458,461.438 245.626,460.417 245.371,457.988 245.157,456.764 244.814,456.004 244.384,453.775 
		243.376,452.201 242.756,450.871 242.197,449.863 241.255,448.438 241.147,448.232 240.825,447.525 240.482,446.563 
		239.712,446.658 238.768,446.959 237.696,447.322 236.71,447.271 235.702,447.067 234.74,446.511 234.225,445.846 232.402,446.102 
		230.667,446.154 229.767,446.049 228.91,445.695 227.881,445.846 226.873,446.049 225.953,446.455 225.309,446.511 
		224.581,447.473 223.979,448.086 222.394,449.702 221.88,450.217 218.835,450.721 217.163,450.472 216.05,450.27 215.192,450.217 
		214.034,449.051 212.792,447.525 211.529,447.935 203.704,448.18 201.43,448.533 199.631,448.491 198.84,448.387 197.573,448.029 
		196.395,447.421 195.579,446.402 194.207,444.729 193.542,444.432 192.944,444.271 192.43,444.677 191.66,445.804 190.974,446.308 
		190.246,446.049 189.084,444.475 188.314,443.103 187.457,442.651 186.386,442.802 184.927,443.103 184.371,443.613 
		183.685,444.677 183.191,445.695 183.128,446.86 182.744,447.977 181.627,449.702 180.189,450.773 178.67,450.829 177.963,450.829 
		176.529,450.367 175.885,449.863 173.184,444.376 172.777,443.306 171.21,442.651 170.29,442.651 169.537,443.306 169.411,444.526 
		169.625,446.714 168.852,448.897 168.298,450.066 167.354,450.311 165.765,450.367 164.869,450.721 163.945,451.889 
		163.581,453.411 162.812,454.279 162.125,454.783 161.009,455.595 159.38,456.154 157.323,455.749 155.865,454.426 
		155.265,454.224 154.536,454.58 154.343,455.448 153.593,456.967 152.265,457.933 151.085,458.286 149.906,458.653 
		148.792,459.657 148.041,460.578 147.42,461.341 147.742,462.755 148.492,464.084 149.049,465.351 149.478,466.313 149.521,467.03 
		148.921,467.888 147.549,467.643 146.734,467.534 145.149,467.129 143.005,467.072 140.69,467.737 139.447,467.737 
		136.875,466.313 135.461,465.96 134.217,465.757 133.274,466.013 132.653,466.064 131.774,465.498 131.131,464.738 
		130.616,463.367 128.945,458.492 128.28,457.075 127.873,456.357 127.101,456.004 126.244,455.34 125.493,455.298 124.357,453.979 
		123.864,453.313 122.9,452.852 121.572,451.234 120.307,449.961 119.492,448.288 118.892,445.233 118.486,443.613 117.928,442.899 
		117.2,441.688 116.857,440.464 116.449,439.907 116,439.705 114.885,439.19 114.028,438.578 113.298,438.428 112.399,438.428 
		111.155,439.148 109.783,439.799 109.032,440.667 108.284,440.968 107.512,440.667 106.912,440.059 106.289,439.705 
		106.097,439.148 105.54,439.04 104.769,438.987 103.803,439.295 102.797,439.949 102.174,440.209 100.911,439.705 99.752,439.949 
		97.866,440.317 96.837,440.563 95.637,439.949 94.759,439.544 93.709,439.855 92.68,440.261 91.522,441.527 90.343,441.527 
		89.979,440.667 88.971,439.498 88.521,438.687 87.149,438.021 86.121,437.367 85.606,436.499 84.406,436.244 83.635,436.296 
		81.92,436.649 80.678,436.607 79.563,436.499 78.556,437.014 77.997,437.871 77.441,438.738 76.776,438.837 76.477,437.818 
		77.033,436.755 79.005,434.571 79.07,433.305 78.877,432.087 78.449,430.764 78.813,429.028 75.511,427.916 75.812,426.19 
		75.362,425.119 74.076,425.431 71.91,425.119 70.432,424.871 69.767,424.206 69.167,423.037 69.104,422.226 69.275,421.571 
		69.917,421.057 71.097,420.199 72.361,418.625 73.025,417.103 72.962,415.976 72.211,414.303 71.333,412.063 70.99,410.342 
		71.247,409.376 71.697,408.316 71.546,406.836 71.203,406.129 71.139,404.606 71.032,402.882 70.732,401.607 71.247,400.18 
		71.139,399.067 70.647,398.714 69.532,398.413 67.989,398.102 67.023,398.157 65.61,398.563 64.537,397.801 63.124,396.933 
		61.087,396.079 59.458,395.306 57.637,394.095 55.644,392.468 55.343,391.597 55.857,390.183 56.457,389.314 57.272,388.254 
		57.53,386.68 58.343,386.067 59.372,385.511 59.972,385.553 61.045,385.959 61.858,386.368 62.352,386.368 63.274,386.218 
		64.495,385.154 66.831,383.881 68.247,382.617 68.847,381.952 69.66,381.844 70.432,382.208 71.546,382.81 72.661,383.527 
		73.947,384.79 74.762,385.959 75.362,385.917 76.134,384.748 76.776,384.14 78.062,383.828 79.262,383.678 82.263,383.216 
		84.364,382.865 86.485,382.103 87.6,380.633 89.08,378.799 89.636,377.172 89.636,376.263 88.051,375.405 86.635,374.943 
		85.414,373.925 84.707,373.067 83.785,372.049 82.627,371.644 80.678,371.535 79.776,370.065 78.963,369.564 77.955,369.358 
		77.891,369.358 77.249,368.899 76.776,368.599 76.883,367.175 77.698,365.449 78.363,363.97 78.877,362.191 78.813,361.128 
		79.883,359.553 80.998,358.385 80.078,357.671 78.662,357.013 77.184,356.299 76.262,356.103 75.919,355.438 76.583,354.066 
		78.512,351.827 79.369,350.819 78.919,349.856 77.291,348.377 75.962,347.155 75.511,347.061 73.476,346.245 72.318,345.227 
		71.139,343.813 69.961,342.28 69.104,340.608 68.096,339.139 64.903,336.801 62.973,336.191 59.866,333.854 57.272,331.769 
		55.449,331.006 55,329.536 55.644,327.962 56.672,324.406 58.687,320.697 60.229,318.468 61.344,316.582 61.988,315.928 
		62.609,315.315 63.23,313.943 64.238,312.061 64.045,311.095 65.503,308.758 67.903,307.75 71.396,304.601 75.877,301.654 
		77.249,300.636 78.512,299.617 79.005,298.91 80.678,297.944 82.177,297.182 83.936,297.741 85.736,296.724 86.742,295.81 
		87.043,294.942 86.742,292.962 87.536,292.514 88.714,291.793 90.236,291.345 91.779,291.033 93.387,292.052 94.824,292.104 
		97.91,292.863 98.316,292.052 97.695,291.439 97.396,290.827 97.458,290.12 97.952,289.008 98.167,287.733 98.124,286.82 
		97.952,285.75 98.381,285.193 99.882,284.787 101.316,285.448 104.769,285.599 105.99,285.298 106.804,284.175 107.77,282.705 
		108.326,281.89 109.697,281.183 110.661,281.795 112.484,281.743 114.67,281.645 116.148,280.875 119.086,280.829 121.121,280.424 
		122.793,280.466 126.415,282.044 128.387,281.54 130.403,280.315 131.688,278.74 132.803,276.76 132.352,275.997 131.688,274.422 
		132.245,272.952 133.146,271.731 133.617,271.637 135.095,271.325 136.617,269.397 137.519,268.334 138.761,267.616 
		139.961,266.706 140.732,267.06 141.183,267.983 142.812,272.246 143.626,273.918 146.37,274.625 147.549,274.625 149.478,275.794 
		151.449,277.166 153.164,277.425 155.458,275.395 155.307,274.583 154.707,273.155 153.785,270.265 154.193,269.397 
		155.393,267.06 156.765,265.443 158.651,264.981 159.508,264.316 160.28,262.794 160.944,260.513 162.679,259.193 163.28,258.325 
		163.021,257.359 162.573,255.988 163.067,254.973 164.183,252.782 164.911,251.67 166.43,250.406 168.918,250.448 169.369,249.129 
		169.838,247.866 170.29,246.743 171.661,245.777 173.589,244.713 174.961,244.052 176.956,244.052 180.042,243.601 
		181.071,243.194 181.715,242.176 181.715,241.263 180.557,239.891 178.265,237.351 177.148,235.37 175.626,228.008 
		175.885,226.678 175.584,226.23 174.041,225.715 171.812,220.337 171.553,219.168 170.996,215.813 170.139,213.734 
		169.173,212.975 166.472,213.324 162.679,214.031 161.44,213.069 159.68,211.697 158.822,210.231 157.193,206.522 154.385,205.707 
		152.007,204.132 150.036,202.609 148.534,198.697 148.041,197.025 145.855,194.176 141.805,189.911 139.919,188.186 
		138.953,187.423 137.132,186.46 135.953,184.329 135.461,183.203 135.095,182.139 135.246,181.176 135.89,180.105 137.732,176.099 
		137.989,175.024 138.89,172.442 138.075,171.928 136.147,171.116 134.988,170.612 129.974,170.612 128.987,170.203 128.688,169.59 
		128.837,168.736 129.652,166.752 131.474,162.081 132.803,160.653 132.803,158.47 133.661,157.857 135.653,156.688 
		137.176,155.425 138.547,153.945 139.704,152.682 141.333,151.663 143.005,152.531 146.412,153.087 147.378,152.573 
		147.892,151.362 148.041,148.867 149.155,146.992 149.82,144.301 151.343,143.388 153.014,142.778 155.094,142.876 
		156.765,142.628 159.209,141.204 160.688,141.407 162.615,141.61 163.581,141.204 165.254,137.999 165.874,137.292 166.99,136.326 
		167.479,135.661 168.466,134.849 169.67,134.849 172.624,136.07 176.074,136.273 177.558,137.348 178.712,139.017 182.87,140.336 
		183.597,141.099 184.5,143.636 184.759,144.451 185.487,145.522 186.6,146.789 186.942,147.601 188.014,147.804 189.536,147.397 
		190.159,147.044 190.501,146.691 190.61,145.417 190.844,144.857 191.422,144.248 191.981,143.132 193.095,141.813 
		194.165,141.099 194.617,140.742 195.215,140.644 196.461,140.945 197.059,140.389 197.875,140.077 198.987,139.426 
		200.146,138.866 201.132,138.404 202.182,137.9 203.061,137.348 204.369,136.886 211.077,136.273 212.235,136.07 213.821,135.77 
		214.527,135.661 214.892,135.108 215.535,134.398 215.966,133.681 216.351,133.327 217.271,133.124 217.526,132.158 
		216.862,129.726 215.791,128.655 215.234,126.878 215.343,125.653 216.82,124.442 218.233,123.372 220.27,120.383 221.236,119.823 
		223.251,120.681 226.807,120.18 227.43,119.61 227.989,118.549 227.989,117.437 228.479,116.212 228.801,111.285 229.207,109.868 
		229.98,108.646 231.353,106.204 232.293,104.178 232.917,104.125 233.368,104.272 235.401,105.035 236.325,104.885 
		237.889,102.754 238.554,101.435 238.963,96.91 239.369,92.291 239.775,91.78 240.524,91.629 242.456,92.035 243.677,91.629 
		242.669,90.762 242.456,89.701 242.561,88.382 243.268,87.514 243.568,84.361 246.784,82.283 248.8,83.507 251.05,85.894 
		251.673,88.028 253.044,90.46 253.898,90.762 256.215,90.513 257.846,92.242 259.728,92.903 260.547,92.851 260.757,90.205 
		261.509,89.036 262.262,88.273 264.704,87.213 266.996,87.462 269.995,88.028 272.161,87.973 277.777,87.161 278.463,86.86 
		280.157,85.894 282.235,85.488 283.499,85.992 285.28,87.826 285.623,88.424 285.28,88.994 285.063,90.002 285.623,90.513 
		287.614,90.051 290.872,88.994 292.286,88.788 293.51,89.142 294.665,89.292 	"/>
</g>
</svg>
